<svg width="25" height="25" viewBox="0 0 25 25" fill="none" xmlns="http://www.w3.org/2000/svg">
<path d="M12.5 0C5.59658 0 0 5.59658 0 12.5C0 19.4034 5.59658 25 12.5 25C19.4034 25 25 19.4034 25 12.5C25 5.59658 19.4034 0 12.5 0ZM12.5 22.9167C6.74717 22.9167 2.08335 18.2528 2.08335 12.5C2.08335 6.74717 6.74717 2.08335 12.5 2.08335C18.2528 2.08335 22.9167 6.74717 22.9167 12.5C22.9167 18.2528 18.2528 22.9167 12.5 22.9167Z" fill="white"/>
<path d="M15.3196 6.55509C14.9128 6.1483 14.2532 6.1483 13.8464 6.55509L8.6381 11.7634C8.23131 12.1702 8.23131 12.8298 8.6381 13.2366L13.8464 18.4449C14.2532 18.8517 14.9128 18.8517 15.3196 18.4449C15.7264 18.0381 15.7264 17.3786 15.3196 16.9718L10.8478 12.5L15.3196 8.02823C15.7264 7.62145 15.7264 6.96193 15.3196 6.55509Z" fill="white"/>
</svg>
