<svg width="27" height="27" viewBox="0 0 27 27" fill="none" xmlns="http://www.w3.org/2000/svg">
<path d="M22.6635 1.81934H4.31106C2.39223 1.81934 0.831055 3.3802 0.831055 5.29934V16.5307C0.831055 18.4455 2.38543 20.0039 4.2987 20.0107V25.1073L11.6232 20.0107H22.6635C24.5824 20.0107 26.1436 18.4495 26.1436 16.5307V5.29934C26.1436 3.3802 24.5824 1.81934 22.6635 1.81934ZM24.6604 16.5307C24.6604 17.6316 23.7646 18.5275 22.6635 18.5275H11.1578L5.78185 22.2685V18.5275H4.31106C3.20997 18.5275 2.31421 17.6316 2.31421 16.5307V5.29934C2.31421 4.1981 3.20997 3.30249 4.31106 3.30249H22.6635C23.7646 3.30249 24.6604 4.1981 24.6604 5.29934V16.5307Z" fill="white" fill-opacity="0.8"/>
<path d="M7.60547 7.06006H19.3684V8.54321H7.60547V7.06006Z" fill="white" fill-opacity="0.8"/>
<path d="M7.60547 10.2241H19.3684V11.7073H7.60547V10.2241Z" fill="white" fill-opacity="0.8"/>
<path d="M7.60547 13.3882H19.3684V14.8714H7.60547V13.3882Z" fill="white" fill-opacity="0.8"/>
</svg>
