<svg width="18" height="18" viewBox="0 0 18 18" fill="none" xmlns="http://www.w3.org/2000/svg">
<g clip-path="url(#clip0)">
<path d="M17.7801 16.7198L12.6614 11.6011C13.6529 10.3764 14.2498 8.82016 14.2498 7.12519C14.2498 3.19672 11.0534 0.000244141 7.12491 0.000244141C3.19645 0.000244141 0 3.19669 0 7.12515C0 11.0536 3.19648 14.2501 7.12494 14.2501C8.81991 14.2501 10.3762 13.6531 11.6009 12.6616L16.7196 17.7803C16.8658 17.9266 17.0578 18.0001 17.2498 18.0001C17.4419 18.0001 17.6339 17.9266 17.7801 17.7803C18.0733 17.4871 18.0733 17.0131 17.7801 16.7198ZM7.12494 12.7501C4.02296 12.7501 1.5 10.2271 1.5 7.12515C1.5 4.02317 4.02296 1.50021 7.12494 1.50021C10.2269 1.50021 12.7499 4.02317 12.7499 7.12515C12.7499 10.2271 10.2269 12.7501 7.12494 12.7501Z" fill="white"/>
</g>
<defs>
<clipPath id="clip0">
<rect width="18" height="18" fill="white"/>
</clipPath>
</defs>
</svg>
