<svg width="23" height="25" viewBox="0 0 23 25" fill="#091E42" xmlns="http://www.w3.org/2000/svg">
<path d="M11.4999 5.5556C12.9113 5.5556 14.0555 4.31194 14.0555 2.7778C14.0555 1.24366 12.9113 0 11.4999 0C10.0885 0 8.94434 1.24366 8.94434 2.7778C8.94434 4.31194 10.0885 5.5556 11.4999 5.5556Z" fill="#091E42"/>
<path d="M11.4999 15.2778C12.9113 15.2778 14.0555 14.0341 14.0555 12.5C14.0555 10.9658 12.9113 9.72217 11.4999 9.72217C10.0885 9.72217 8.94434 10.9658 8.94434 12.5C8.94434 14.0341 10.0885 15.2778 11.4999 15.2778Z" fill="#091E42"/>
<path d="M11.4999 24.9999C12.9113 24.9999 14.0555 23.7563 14.0555 22.2221C14.0555 20.688 12.9113 19.4443 11.4999 19.4443C10.0885 19.4443 8.94434 20.688 8.94434 22.2221C8.94434 23.7563 10.0885 24.9999 11.4999 24.9999Z" fill="#091E42"/>
</svg>
